Ref_01_analogdata.mot
version=1
nRows=22
nColumns=19
inDegrees=yes
endheader
time	1_ground_force_vx	1_ground_force_vy	1_ground_force_vz	1_ground_force_px	1_ground_force_py	1_ground_force_pz	1_ground_torque_x	1_ground_torque_y	1_ground_torque_z	2_ground_force_vx	2_ground_force_vy	2_ground_force_vz	2_ground_force_px	2_ground_force_py	2_ground_force_pz	2_ground_torque_x	2_ground_torque_y	2_ground_torque_z
0.580000	0.118127	629.693298	0.410231	-0.203688	0.000000	-0.350215	-0.000012	-0.061310	-0.000040	0.000000	0.000000	-0.000000	-0.200000	0.000000	0.302000	0.000000	0.000000	-0.000000
0.581000	-2.376276	631.792847	-0.651400	-0.203503	0.000000	-0.349683	0.001315	-0.349613	0.000360	0.000000	0.000000	-0.000000	-0.200000	0.000000	0.302000	0.000000	0.000000	-0.000000
0.582000	0.029041	628.993469	0.410231	-0.203751	0.000000	-0.350052	0.000010	0.214361	0.000140	0.000000	0.000000	-0.000000	-0.200000	0.000000	0.302000	0.000000	0.000000	-0.000000
0.583000	0.296298	625.144348	0.410231	-0.203364	0.000000	-0.351829	0.000011	0.022961	0.000015	0.000000	0.000000	-0.000000	-0.200000	0.000000	0.302000	0.000000	0.000000	-0.000000
0.584000	-0.238216	632.492676	0.764108	-0.203153	0.000000	-0.350066	-0.000160	0.424251	0.000513	0.000000	0.000000	-0.000000	-0.200000	0.000000	0.302000	0.000000	0.000000	-0.000000
0.585000	-0.060045	632.142761	-0.297523	-0.203211	0.000000	-0.349803	-0.000025	0.268447	-0.000126	0.000000	0.000000	-0.000000	-0.200000	0.000000	0.302000	0.000000	0.000000	-0.000000
0.586000	0.118127	631.093018	0.056354	-0.203738	0.000000	-0.349958	0.000006	0.033354	0.000003	0.000000	0.000000	-0.000000	-0.200000	0.000000	0.302000	0.000000	0.000000	-0.000000
0.587000	0.385385	634.242310	-1.359154	-0.203834	0.000000	-0.349348	0.000066	0.107928	-0.000231	0.000000	0.000000	-0.000000	-0.200000	0.000000	0.302000	0.000000	0.000000	-0.000000
0.588000	1.365328	629.693298	1.206454	-0.203689	0.000000	-0.349850	0.000441	0.203344	0.000390	0.000000	0.000000	-0.000000	-0.200000	0.000000	0.302000	0.000000	0.000000	-0.000000
0.589000	1.098071	628.993469	1.029515	-0.203228	0.000000	-0.351074	0.000043	0.024387	0.000040	0.000000	0.000000	-0.000000	-0.200000	0.000000	0.302000	0.000000	0.000000	-0.000000
0.590000	-0.060045	627.943726	0.410231	-0.203350	0.000000	-0.349917	-0.000008	0.079327	0.000052	0.000000	0.000000	-0.000000	-0.200000	0.000000	0.302000	0.000000	0.000000	-0.000000
0.591000	-0.060045	631.093018	0.410231	-0.203391	0.000000	-0.349740	0.000005	-0.051428	-0.000033	0.000000	0.000000	-0.000000	-0.200000	0.000000	0.302000	0.000000	0.000000	-0.000000
0.592000	-0.149131	630.743103	0.764108	-0.202755	0.000000	-0.349622	0.000031	-0.131269	-0.000159	0.000000	0.000000	-0.000000	-0.200000	0.000000	0.302000	0.000000	0.000000	-0.000000
0.593000	0.830813	638.091492	1.117985	-0.203754	0.000000	-0.348475	0.000059	0.045061	0.000079	0.000000	0.000000	-0.000000	-0.200000	0.000000	0.302000	0.000000	0.000000	-0.000000
0.594000	0.385384	620.945251	1.383392	-0.203623	0.000000	-0.350627	-0.000020	-0.032551	-0.000073	0.000000	0.000000	-0.000000	-0.200000	0.000000	0.302000	0.000000	0.000000	-0.000000
0.595000	1.187156	628.293640	0.410231	-0.202533	0.000000	-0.350327	0.000234	0.123726	0.000081	0.000000	0.000000	-0.000000	-0.200000	0.000000	0.302000	0.000000	0.000000	-0.000000
0.596000	-0.683645	630.043274	0.321761	-0.203918	0.000000	-0.350041	0.000171	-0.157235	-0.000080	0.000000	0.000000	-0.000000	-0.200000	0.000000	0.302000	0.000000	0.000000	-0.000000
0.597000	-0.149131	630.393188	0.144823	-0.203742	0.000000	-0.349359	0.000009	-0.036275	-0.000008	0.000000	0.000000	-0.000000	-0.200000	0.000000	0.302000	0.000000	0.000000	-0.000000
0.598000	-2.109018	630.743103	-0.651400	-0.203567	0.000000	-0.349548	0.001061	-0.317329	0.000328	0.000000	0.000000	-0.000000	-0.200000	0.000000	0.302000	0.000000	0.000000	-0.000000
0.599000	-1.129074	628.643555	0.675638	-0.204160	0.000000	-0.349204	-0.000079	0.044011	0.000047	0.000000	0.000000	-0.000000	-0.200000	0.000000	0.302000	0.000000	0.000000	-0.000000
0.600000	0.118127	624.794434	0.852577	-0.203249	0.000000	-0.352666	0.000009	0.049792	0.000068	0.000000	0.000000	-0.000000	-0.200000	0.000000	0.302000	0.000000	0.000000	-0.000000
0.601000	0.029041	630.743103	0.587169	-0.203392	0.000000	-0.350350	-0.000015	-0.327755	-0.000305	0.000000	0.000000	-0.000000	-0.200000	0.000000	0.302000	0.000000	0.000000	-0.000000
